<?xml version="1.0" encoding="UTF-8"?>
<svg xmlns="http://www.w3.org/2000/svg" xmlns:xlink="http://www.w3.org/1999/xlink" viewBox="0 0 150 150" width="150px" height="150px">
<g id="surface5404761">
<path style=" stroke:none;fill-rule:nonzero;fill:rgb(100%,100%,100%);fill-opacity:1;" d="M 75 9 C 55.089844 9 39 25.089844 39 45 L 39 60 L 27 60 C 22.066406 60 18 64.066406 18 69 L 18 141 C 18 145.933594 22.066406 150 27 150 L 123 150 C 127.933594 150 132 145.933594 132 141 L 132 69 C 132 64.066406 127.933594 60 123 60 L 111 60 L 111 45 C 111 25.089844 94.910156 9 75 9 Z M 75 15 C 91.699219 15 105 28.300781 105 45 L 105 60 L 45 60 L 45 45 C 45 28.300781 58.300781 15 75 15 Z M 27 66 L 123 66 C 124.664062 66 126 67.335938 126 69 L 126 141 C 126 142.664062 124.664062 144 123 144 L 27 144 C 25.335938 144 24 142.664062 24 141 L 24 69 C 24 67.335938 25.335938 66 27 66 Z M 75 90 C 69.902344 90 66 93.902344 66 99 C 66 101.695312 67.195312 104.0625 69 105.5625 L 69 114 C 69 117.304688 71.695312 120 75 120 C 78.304688 120 81 117.304688 81 114 L 81 105.5625 C 82.804688 104.0625 84 101.695312 84 99 C 84 93.902344 80.097656 90 75 90 Z M 75 90 "/>
</g>
</svg>
